<svg width="16" height="16" viewBox="0 0 16 16" fill="none" xmlns="http://www.w3.org/2000/svg">
<path d="M1.33389 9.33337L11.4581 9.33337L7.05627 13.7164C6.80509 13.9673 6.66398 14.3075 6.66398 14.6623C6.66398 15.0171 6.80509 15.3573 7.05626 15.6082C7.30744 15.8591 7.64811 16 8.00332 16C8.35854 16 8.69921 15.8591 8.95039 15.6082L15.6198 8.94702C15.7413 8.82032 15.8365 8.67092 15.8999 8.50739C16.0334 8.18304 16.0334 7.81923 15.8999 7.49489C15.8365 7.33135 15.7413 7.18195 15.6198 7.05525L8.95039 0.394074C8.82638 0.269206 8.67886 0.170093 8.51631 0.102457C8.35376 0.0348218 8.17942 2.69977e-07 8.00333 2.54583e-07C7.82724 2.39189e-07 7.65289 0.0348217 7.49034 0.102457C7.3278 0.170093 7.18027 0.269206 7.05627 0.394074C6.93124 0.517923 6.83201 0.665268 6.76429 0.827613C6.69657 0.989958 6.6617 1.16409 6.6617 1.33996C6.6617 1.51583 6.69657 1.68996 6.76429 1.85231C6.83201 2.01465 6.93124 2.162 7.05627 2.28585L11.4581 6.6689L1.33389 6.6689C0.980119 6.6689 0.640838 6.80926 0.390686 7.0591C0.140533 7.30895 7.30172e-07 7.6478 6.99283e-07 8.00114C6.68394e-07 8.35447 0.140533 8.69333 0.390686 8.94317C0.640838 9.19301 0.980118 9.33337 1.33389 9.33337Z" fill="#0C396D"/>
</svg>
