<svg width="40" height="40" viewBox="0 0 40 40" fill="none" xmlns="http://www.w3.org/2000/svg">
<path d="M28.3334 16.6663C29.445 17.778 32.6667 19.9997 36.6667 19.9997L36.3834 20.5697C35.9681 21.4 35.3298 22.0983 34.54 22.5864C33.7502 23.0745 32.8401 23.333 31.9117 23.333H8.09171C7.16272 23.3336 6.25195 23.0754 5.46152 22.5873C4.67109 22.0992 4.03227 21.4005 3.61671 20.5697L3.33337 19.9997C7.33337 19.9997 10.555 17.778 11.6667 16.6663M28.3334 16.6663H11.6667M28.3334 16.6663V9.99967M11.6667 16.6663V9.99967M31.6667 36.6663V23.333M8.33337 36.6663V23.333M5.00004 36.6663H35M16.6667 36.6663V31.6663C16.6667 30.7823 17.0179 29.9344 17.643 29.3093C18.2681 28.6842 19.116 28.333 20 28.333C20.8841 28.333 21.7319 28.6842 22.3571 29.3093C22.9822 29.9344 23.3334 30.7823 23.3334 31.6663V36.6663M31.6667 6.66634C29.245 6.66634 27.1084 5.85134 25.5534 4.96301C23.9134 4.02467 23.0934 3.55634 22.6734 3.44467C22.25 3.33301 21.6917 3.33301 20.5734 3.33301H19.4284C18.3084 3.33301 17.7484 3.33301 17.3284 3.44467C16.9067 3.55634 16.0867 4.02467 14.4467 4.96134C12.8917 5.85301 10.755 6.66634 8.33337 6.66634L8.61671 7.23634C9.03227 8.06719 9.67109 8.76584 10.4615 9.25394C11.2519 9.74203 12.1627 10.0003 13.0917 9.99967H26.9117C27.8401 9.99964 28.7502 9.74112 29.54 9.25306C30.3298 8.765 30.9681 8.06669 31.3834 7.23634L31.6667 6.66634Z" stroke="#1281CE" stroke-width="1.5" stroke-linecap="round" stroke-linejoin="round"/>
</svg>
