<svg width="20" height="20" viewBox="0 0 20 20" fill="none" xmlns="http://www.w3.org/2000/svg">
<path d="M4.16638 10.0002V3.3335M15.833 16.6668V14.1668M4.16638 16.6668V13.3335M15.833 10.8335V3.3335M9.99972 5.8335V3.3335M9.99972 16.6668V9.16683" stroke="#0C396D" stroke-width="0.833333" stroke-linecap="round"/>
<path d="M4.16642 13.3333C5.0869 13.3333 5.83309 12.5871 5.83309 11.6667C5.83309 10.7462 5.0869 10 4.16642 10C3.24595 10 2.49976 10.7462 2.49976 11.6667C2.49976 12.5871 3.24595 13.3333 4.16642 13.3333Z" stroke="#0C396D" stroke-width="0.833333" stroke-linecap="round"/>
<path d="M9.99967 9.16683C10.9201 9.16683 11.6663 8.42064 11.6663 7.50016C11.6663 6.57969 10.9201 5.8335 9.99967 5.8335C9.0792 5.8335 8.33301 6.57969 8.33301 7.50016C8.33301 8.42064 9.0792 9.16683 9.99967 9.16683Z" stroke="#0C396D" stroke-width="0.833333" stroke-linecap="round"/>
<path d="M15.833 14.1668C16.7535 14.1668 17.4997 13.4206 17.4997 12.5002C17.4997 11.5797 16.7535 10.8335 15.833 10.8335C14.9126 10.8335 14.1664 11.5797 14.1664 12.5002C14.1664 13.4206 14.9126 14.1668 15.833 14.1668Z" stroke="#0C396D" stroke-width="0.833333" stroke-linecap="round"/>
</svg>
