<svg width="64" height="64" viewBox="0 0 64 64" fill="none" xmlns="http://www.w3.org/2000/svg">
<g clip-path="url(#clip0_233_4795)">
<path fill-rule="evenodd" clip-rule="evenodd" d="M33.2373 0.396828C32.876 0.139581 32.4435 0.00134277 32 0.00134277C31.5565 0.00134277 31.124 0.139581 30.7627 0.396828L0.896 21.7302C0.619114 21.9273 0.39334 22.1877 0.237486 22.4898C0.0816325 22.7919 0.000209584 23.1268 0 23.4667L0 61.8667C0 62.4325 0.224761 62.9751 0.624839 63.3752C1.02492 63.7753 1.56754 64 2.13333 64H8.53333V34.1334H29.8667V64H61.8667C62.4325 64 62.9751 63.7753 63.3752 63.3752C63.7752 62.9751 64 62.4325 64 61.8667V23.4667C63.9998 23.1268 63.9184 22.7919 63.7625 22.4898C63.6067 22.1877 63.3809 21.9273 63.104 21.7302L59.7333 19.3195V8.53336H55.4667V16.2731L33.2373 0.396828ZM46.9333 51.2V34.1334H51.2V51.2H46.9333Z" fill="#BECDDD"/>
<path d="M25.6 64V51.2H21.3334V46.9334H25.6V38.4H12.8V64H25.6Z" fill="#BECDDD"/>
</g>
<defs>
<clipPath id="clip0_233_4795">
<rect width="64" height="64" fill="white"/>
</clipPath>
</defs>
</svg>
