<svg width="20" height="20" viewBox="0 0 20 20" fill="none" xmlns="http://www.w3.org/2000/svg">
<path d="M15.7749 16.6663C14.3705 16.6663 12.9305 16.3147 11.4549 15.6113C9.97936 14.908 8.60603 13.9205 7.33492 12.6488C6.07381 11.3777 5.09159 10.0069 4.38825 8.53634C3.68492 7.06579 3.33325 5.62856 3.33325 4.22467C3.33325 3.97467 3.41659 3.76356 3.58325 3.59134C3.74992 3.41912 3.95825 3.33301 4.20825 3.33301H6.26908C6.49575 3.33301 6.69353 3.4044 6.86242 3.54717C7.03131 3.68995 7.14547 3.87301 7.20492 4.09634L7.61825 6.08301C7.65714 6.31634 7.6502 6.51995 7.59742 6.69384C7.54464 6.86773 7.45214 7.01023 7.31992 7.12134L5.49159 8.82634C5.83381 9.4469 6.21186 10.0236 6.62575 10.5563C7.03964 11.0891 7.48131 11.5938 7.95075 12.0705C8.43409 12.5538 8.95464 13.0038 9.51242 13.4205C10.0702 13.8366 10.6824 14.2294 11.3491 14.5988L13.1316 12.7847C13.2671 12.6386 13.4196 12.5422 13.5891 12.4955C13.758 12.4494 13.9452 12.4402 14.1508 12.468L15.9033 12.8263C16.1299 12.8819 16.3138 12.9961 16.4549 13.1688C16.596 13.3416 16.6666 13.5394 16.6666 13.7622V15.7913C16.6666 16.0413 16.5805 16.2497 16.4083 16.4163C16.236 16.583 16.0249 16.6663 15.7749 16.6663Z" fill="#212121"/>
<path d="M15.7749 16.6663C14.3705 16.6663 12.9305 16.3147 11.4549 15.6113C9.97936 14.908 8.60603 13.9205 7.33492 12.6488C6.07381 11.3777 5.09159 10.0069 4.38825 8.53634C3.68492 7.06579 3.33325 5.62856 3.33325 4.22467C3.33325 3.97467 3.41659 3.76356 3.58325 3.59134C3.74992 3.41912 3.95825 3.33301 4.20825 3.33301H6.26908C6.49575 3.33301 6.69353 3.4044 6.86242 3.54717C7.03131 3.68995 7.14547 3.87301 7.20492 4.09634L7.61825 6.08301C7.65714 6.31634 7.6502 6.51995 7.59742 6.69384C7.54464 6.86773 7.45214 7.01023 7.31992 7.12134L5.49159 8.82634C5.83381 9.4469 6.21186 10.0236 6.62575 10.5563C7.03964 11.0891 7.48131 11.5938 7.95075 12.0705C8.43409 12.5538 8.95464 13.0038 9.51242 13.4205C10.0702 13.8366 10.6824 14.2294 11.3491 14.5988L13.1316 12.7847C13.2671 12.6386 13.4196 12.5422 13.5891 12.4955C13.758 12.4494 13.9452 12.4402 14.1508 12.468L15.9033 12.8263C16.1299 12.8819 16.3138 12.9961 16.4549 13.1688C16.596 13.3416 16.6666 13.5394 16.6666 13.7622V15.7913C16.6666 16.0413 16.5805 16.2497 16.4083 16.4163C16.236 16.583 16.0249 16.6663 15.7749 16.6663Z" fill="black" fill-opacity="0.2"/>
</svg>
