<svg width="56" height="56" viewBox="0 0 56 56" fill="none" xmlns="http://www.w3.org/2000/svg">
<rect x="0.875" y="0.875" width="54.25" height="54.25" rx="27.125" fill="#FCFCFC" fill-opacity="0.8"/>
<rect x="0.875" y="0.875" width="54.25" height="54.25" rx="27.125" stroke="#FCFCFC" stroke-width="1.75"/>
<path d="M25.375 36.75C25.2602 36.7514 25.1465 36.7288 25.041 36.6836C24.9355 36.6384 24.8406 36.5716 24.7625 36.4875C24.4125 36.1375 24.4125 35.595 24.7625 35.245L32.025 27.9825L24.7625 20.7375C24.4125 20.3875 24.4125 19.845 24.7625 19.495C25.1125 19.145 25.655 19.145 26.005 19.495L33.8625 27.3875C34.2125 27.7375 34.2125 28.28 33.8625 28.63L25.9875 36.4875C25.8125 36.6625 25.585 36.75 25.375 36.75Z" fill="#0C396D"/>
</svg>
