<svg width="20" height="20" viewBox="0 0 20 20" fill="none" xmlns="http://www.w3.org/2000/svg">
<path d="M20 2.5V17.5H0V2.5H20ZM18.75 3.75H15V6.25H13.75V3.75H6.25V6.25H5V3.75H1.25V16.25H5V15H6.25V16.25H13.75V15H15V16.25H18.75V3.75ZM5 7.5H6.25V10H5V7.5ZM5 11.25H6.25V13.75H5V11.25ZM13.75 7.5H15V10H13.75V7.5ZM13.75 11.25H15V13.75H13.75V11.25Z" fill="#212121"/>
<path d="M20 2.5V17.5H0V2.5H20ZM18.75 3.75H15V6.25H13.75V3.75H6.25V6.25H5V3.75H1.25V16.25H5V15H6.25V16.25H13.75V15H15V16.25H18.75V3.75ZM5 7.5H6.25V10H5V7.5ZM5 11.25H6.25V13.75H5V11.25ZM13.75 7.5H15V10H13.75V7.5ZM13.75 11.25H15V13.75H13.75V11.25Z" fill="black" fill-opacity="0.2"/>
</svg>
