<svg width="16" height="16" viewBox="0 0 16 16" fill="none" xmlns="http://www.w3.org/2000/svg">
<path d="M8 10.5002C7.93442 10.501 7.86941 10.4881 7.80913 10.4623C7.74885 10.4364 7.69465 10.3983 7.65 10.3502L3.15 5.85023C2.95 5.65023 2.95 5.34023 3.15 5.14023C3.35 4.94023 3.66 4.94023 3.86 5.14023L8.01 9.29023L12.15 5.15023C12.35 4.95023 12.66 4.95023 12.86 5.15023C13.06 5.35023 13.06 5.66023 12.86 5.86023L8.36 10.3602C8.26 10.4602 8.13 10.5102 8.01 10.5102L8 10.5002Z" fill="#212121"/>
<path d="M8 10.5002C7.93442 10.501 7.86941 10.4881 7.80913 10.4623C7.74885 10.4364 7.69465 10.3983 7.65 10.3502L3.15 5.85023C2.95 5.65023 2.95 5.34023 3.15 5.14023C3.35 4.94023 3.66 4.94023 3.86 5.14023L8.01 9.29023L12.15 5.15023C12.35 4.95023 12.66 4.95023 12.86 5.15023C13.06 5.35023 13.06 5.66023 12.86 5.86023L8.36 10.3602C8.26 10.4602 8.13 10.5102 8.01 10.5102L8 10.5002Z" fill="black" fill-opacity="0.2"/>
</svg>
