<svg width="96" height="40" viewBox="0 0 96 40" fill="none" xmlns="http://www.w3.org/2000/svg">
<path d="M10.396 26.0002L9.262 22.5982H4.564L3.466 26.0002H1.396L5.68 13.4362H8.236L12.52 26.0002H10.396ZM6.958 15.3082H6.868L5.05 20.8522H8.758L6.958 15.3082Z" fill="#0C396D"/>
<path d="M17.094 26.2162C16.206 26.2162 15.462 26.0602 14.862 25.7482C14.262 25.4362 13.74 25.0042 13.296 24.4522L14.556 23.3002C14.904 23.7202 15.288 24.0502 15.708 24.2902C16.14 24.5182 16.638 24.6322 17.202 24.6322C17.778 24.6322 18.204 24.5242 18.48 24.3082C18.768 24.0802 18.912 23.7682 18.912 23.3722C18.912 23.0722 18.81 22.8202 18.606 22.6162C18.414 22.4002 18.072 22.2622 17.58 22.2022L16.716 22.0942C15.756 21.9742 15 21.6982 14.448 21.2662C13.908 20.8222 13.638 20.1682 13.638 19.3042C13.638 18.8482 13.722 18.4462 13.89 18.0982C14.058 17.7382 14.292 17.4382 14.592 17.1982C14.904 16.9462 15.27 16.7542 15.69 16.6222C16.122 16.4902 16.596 16.4242 17.112 16.4242C17.952 16.4242 18.636 16.5562 19.164 16.8202C19.704 17.0842 20.184 17.4502 20.604 17.9182L19.398 19.0702C19.158 18.7822 18.84 18.5362 18.444 18.3322C18.06 18.1162 17.616 18.0082 17.112 18.0082C16.572 18.0082 16.17 18.1162 15.906 18.3322C15.654 18.5482 15.528 18.8302 15.528 19.1782C15.528 19.5382 15.642 19.8082 15.87 19.9882C16.098 20.1682 16.464 20.3002 16.968 20.3842L17.832 20.4922C18.864 20.6482 19.614 20.9542 20.082 21.4102C20.562 21.8542 20.802 22.4542 20.802 23.2102C20.802 23.6662 20.712 24.0802 20.532 24.4522C20.364 24.8122 20.118 25.1242 19.794 25.3882C19.47 25.6522 19.08 25.8562 18.624 26.0002C18.168 26.1442 17.658 26.2162 17.094 26.2162Z" fill="#0C396D"/>
<path d="M25.685 26.2162C24.797 26.2162 24.053 26.0602 23.453 25.7482C22.853 25.4362 22.331 25.0042 21.887 24.4522L23.147 23.3002C23.495 23.7202 23.879 24.0502 24.299 24.2902C24.731 24.5182 25.229 24.6322 25.793 24.6322C26.369 24.6322 26.795 24.5242 27.071 24.3082C27.359 24.0802 27.503 23.7682 27.503 23.3722C27.503 23.0722 27.401 22.8202 27.197 22.6162C27.005 22.4002 26.663 22.2622 26.171 22.2022L25.307 22.0942C24.347 21.9742 23.591 21.6982 23.039 21.2662C22.499 20.8222 22.229 20.1682 22.229 19.3042C22.229 18.8482 22.313 18.4462 22.481 18.0982C22.649 17.7382 22.883 17.4382 23.183 17.1982C23.495 16.9462 23.861 16.7542 24.281 16.6222C24.713 16.4902 25.187 16.4242 25.703 16.4242C26.543 16.4242 27.227 16.5562 27.755 16.8202C28.295 17.0842 28.775 17.4502 29.195 17.9182L27.989 19.0702C27.749 18.7822 27.431 18.5362 27.035 18.3322C26.651 18.1162 26.207 18.0082 25.703 18.0082C25.163 18.0082 24.761 18.1162 24.497 18.3322C24.245 18.5482 24.119 18.8302 24.119 19.1782C24.119 19.5382 24.233 19.8082 24.461 19.9882C24.689 20.1682 25.055 20.3002 25.559 20.3842L26.423 20.4922C27.455 20.6482 28.205 20.9542 28.673 21.4102C29.153 21.8542 29.393 22.4542 29.393 23.2102C29.393 23.6662 29.303 24.0802 29.123 24.4522C28.955 24.8122 28.709 25.1242 28.385 25.3882C28.061 25.6522 27.671 25.8562 27.215 26.0002C26.759 26.1442 26.249 26.2162 25.685 26.2162Z" fill="#0C396D"/>
<path d="M35.0836 26.2162C34.4116 26.2162 33.8116 26.1022 33.2836 25.8742C32.7556 25.6462 32.3056 25.3222 31.9336 24.9022C31.5616 24.4702 31.2736 23.9542 31.0696 23.3542C30.8776 22.7422 30.7816 22.0642 30.7816 21.3202C30.7816 20.5762 30.8776 19.9042 31.0696 19.3042C31.2736 18.6922 31.5616 18.1762 31.9336 17.7562C32.3056 17.3242 32.7556 16.9942 33.2836 16.7662C33.8116 16.5382 34.4116 16.4242 35.0836 16.4242C35.7676 16.4242 36.3676 16.5442 36.8836 16.7842C37.4116 17.0242 37.8496 17.3602 38.1976 17.7922C38.5456 18.2122 38.8036 18.7042 38.9716 19.2682C39.1516 19.8322 39.2416 20.4382 39.2416 21.0862V21.8242H32.8156V22.1302C32.8156 22.8502 33.0256 23.4442 33.4456 23.9122C33.8776 24.3682 34.4896 24.5962 35.2816 24.5962C35.8576 24.5962 36.3436 24.4702 36.7396 24.2182C37.1356 23.9662 37.4716 23.6242 37.7476 23.1922L38.8996 24.3262C38.5516 24.9022 38.0476 25.3642 37.3876 25.7122C36.7276 26.0482 35.9596 26.2162 35.0836 26.2162ZM35.0836 17.9542C34.7476 17.9542 34.4356 18.0142 34.1476 18.1342C33.8716 18.2542 33.6316 18.4222 33.4276 18.6382C33.2356 18.8542 33.0856 19.1122 32.9776 19.4122C32.8696 19.7122 32.8156 20.0422 32.8156 20.4022V20.5282H37.1716V20.3482C37.1716 19.6282 36.9856 19.0522 36.6136 18.6202C36.2416 18.1762 35.7316 17.9542 35.0836 17.9542Z" fill="#0C396D"/>
<path d="M43.8075 26.0002C43.1235 26.0002 42.6075 25.8262 42.2595 25.4782C41.9115 25.1182 41.7375 24.6142 41.7375 23.9662V18.2422H40.2795V16.6402H41.0715C41.3955 16.6402 41.6175 16.5682 41.7375 16.4242C41.8695 16.2802 41.9355 16.0462 41.9355 15.7222V14.0842H43.6995V16.6402H45.6615V18.2422H43.6995V24.3982H45.5175V26.0002H43.8075Z" fill="#0C396D"/>
<path d="M56.5076 26.2162C54.8636 26.2162 53.5736 25.6642 52.6376 24.5602C51.7016 23.4442 51.2336 21.8302 51.2336 19.7182C51.2336 18.6622 51.3536 17.7322 51.5936 16.9282C51.8336 16.1242 52.1816 15.4462 52.6376 14.8942C53.0936 14.3422 53.6456 13.9282 54.2936 13.6522C54.9536 13.3642 55.6916 13.2202 56.5076 13.2202C57.5996 13.2202 58.5116 13.4602 59.2436 13.9402C59.9876 14.4202 60.5696 15.1282 60.9896 16.0642L59.2796 17.0002C59.0636 16.4002 58.7276 15.9262 58.2716 15.5782C57.8276 15.2182 57.2396 15.0382 56.5076 15.0382C55.5356 15.0382 54.7736 15.3682 54.2216 16.0282C53.6696 16.6882 53.3936 17.6002 53.3936 18.7642V20.6722C53.3936 21.8362 53.6696 22.7482 54.2216 23.4082C54.7736 24.0682 55.5356 24.3982 56.5076 24.3982C57.2636 24.3982 57.8756 24.2062 58.3436 23.8222C58.8236 23.4262 59.1776 22.9222 59.4056 22.3102L61.0436 23.3002C60.6236 24.2122 60.0356 24.9262 59.2796 25.4422C58.5236 25.9582 57.5996 26.2162 56.5076 26.2162Z" fill="#0C396D"/>
<path d="M69.7158 26.0002C69.1998 26.0002 68.8038 25.8562 68.5278 25.5682C68.2518 25.2682 68.0838 24.8902 68.0238 24.4342H67.9338C67.7538 25.0222 67.4238 25.4662 66.9438 25.7662C66.4638 26.0662 65.8818 26.2162 65.1978 26.2162C64.2258 26.2162 63.4758 25.9642 62.9478 25.4602C62.4318 24.9562 62.1738 24.2782 62.1738 23.4262C62.1738 22.4902 62.5098 21.7882 63.1818 21.3202C63.8658 20.8522 64.8618 20.6182 66.1698 20.6182H67.8618V19.8262C67.8618 19.2502 67.7058 18.8062 67.3938 18.4942C67.0818 18.1822 66.5958 18.0262 65.9358 18.0262C65.3838 18.0262 64.9338 18.1462 64.5858 18.3862C64.2378 18.6262 63.9438 18.9322 63.7038 19.3042L62.5338 18.2422C62.8458 17.7142 63.2838 17.2822 63.8478 16.9462C64.4118 16.5982 65.1498 16.4242 66.0618 16.4242C67.2738 16.4242 68.2038 16.7062 68.8518 17.2702C69.4998 17.8342 69.8238 18.6442 69.8238 19.7002V24.3982H70.8138V26.0002H69.7158ZM65.7558 24.7222C66.3678 24.7222 66.8718 24.5902 67.2678 24.3262C67.6638 24.0502 67.8618 23.6842 67.8618 23.2282V21.8782H66.2058C64.8498 21.8782 64.1718 22.2982 64.1718 23.1382V23.4622C64.1718 23.8822 64.3098 24.2002 64.5858 24.4162C64.8738 24.6202 65.2638 24.7222 65.7558 24.7222Z" fill="#0C396D"/>
<path d="M72.5387 26.0002V16.6402H74.5007V18.4402H74.5907C74.7227 17.9602 74.9987 17.5402 75.4187 17.1802C75.8387 16.8202 76.4207 16.6402 77.1647 16.6402H77.6867V18.5302H76.9128C76.1328 18.5302 75.5327 18.6562 75.1127 18.9082C74.7048 19.1602 74.5007 19.5322 74.5007 20.0242V26.0002H72.5387Z" fill="#0C396D"/>
<path d="M85.0295 24.4522H84.9395C84.7355 25.0042 84.3995 25.4362 83.9315 25.7482C83.4755 26.0602 82.9355 26.2162 82.3115 26.2162C81.1235 26.2162 80.2055 25.7902 79.5575 24.9382C78.9095 24.0742 78.5855 22.8682 78.5855 21.3202C78.5855 19.7722 78.9095 18.5722 79.5575 17.7202C80.2055 16.8562 81.1235 16.4242 82.3115 16.4242C82.9355 16.4242 83.4755 16.5802 83.9315 16.8922C84.3995 17.1922 84.7355 17.6242 84.9395 18.1882H85.0295V12.6802H86.9915V26.0002H85.0295V24.4522ZM82.9055 24.5242C83.5055 24.5242 84.0095 24.3802 84.4175 24.0922C84.8255 23.7922 85.0295 23.4022 85.0295 22.9222V19.7182C85.0295 19.2382 84.8255 18.8542 84.4175 18.5662C84.0095 18.2662 83.5055 18.1162 82.9055 18.1162C82.2215 18.1162 81.6755 18.3382 81.2675 18.7822C80.8595 19.2142 80.6555 19.7902 80.6555 20.5102V22.1302C80.6555 22.8502 80.8595 23.4322 81.2675 23.8762C81.6755 24.3082 82.2215 24.5242 82.9055 24.5242Z" fill="#0C396D"/>
<path d="M90.8038 26.2162C90.3598 26.2162 90.0298 26.1022 89.8138 25.8742C89.5978 25.6342 89.4898 25.3402 89.4898 24.9922V24.7222C89.4898 24.3742 89.5978 24.0862 89.8138 23.8582C90.0298 23.6182 90.3598 23.4982 90.8038 23.4982C91.2478 23.4982 91.5778 23.6182 91.7938 23.8582C92.0098 24.0862 92.1178 24.3742 92.1178 24.7222V24.9922C92.1178 25.3402 92.0098 25.6342 91.7938 25.8742C91.5778 26.1022 91.2478 26.2162 90.8038 26.2162Z" fill="#0C396D"/>
</svg>
