<svg width="20" height="20" viewBox="0 0 20 20" fill="none" xmlns="http://www.w3.org/2000/svg">
<path d="M4.44487 11.1115L12.8817 11.1115L9.21351 14.764C9.0042 14.9731 8.88661 15.2566 8.88661 15.5523C8.88661 15.8479 9.0042 16.1314 9.21351 16.3405C9.42283 16.5495 9.70672 16.667 10.0027 16.667C10.2987 16.667 10.5826 16.5495 10.7919 16.3405L16.3498 10.7895C16.451 10.6839 16.5303 10.5594 16.5832 10.4231C16.6944 10.1529 16.6944 9.84969 16.5832 9.5794C16.5303 9.44312 16.451 9.31862 16.3498 9.21303L10.7919 3.66205C10.6886 3.558 10.5657 3.4754 10.4302 3.41904C10.2948 3.36268 10.1495 3.33366 10.0027 3.33366C9.85599 3.33366 9.7107 3.36268 9.57525 3.41904C9.43979 3.4754 9.31685 3.558 9.21351 3.66205C9.10933 3.76526 9.02663 3.88805 8.9702 4.02334C8.91377 4.15862 8.88471 4.30373 8.88471 4.45029C8.88471 4.59685 8.91377 4.74196 8.9702 4.87725C9.02663 5.01254 9.10933 5.13532 9.21351 5.23853L12.8817 8.89108L4.44487 8.89108C4.15006 8.89108 3.86733 9.00804 3.65887 9.21624C3.4504 9.42445 3.33329 9.70683 3.33329 10.0013C3.33329 10.2957 3.4504 10.5781 3.65887 10.7863C3.86733 10.9945 4.15006 11.1115 4.44487 11.1115Z" fill="#459DDA"/>
</svg>
