<svg width="20" height="19" viewBox="0 0 20 19" fill="none" xmlns="http://www.w3.org/2000/svg">
<path d="M4.34737 16.0824L16.0207 9.84409C16.0848 9.80957 16.1382 9.7595 16.1753 9.699C16.2124 9.6385 16.2319 9.56973 16.2319 9.49971C16.2319 9.42969 16.2124 9.36093 16.1753 9.30043C16.1382 9.23993 16.0848 9.18986 16.0207 9.15534L4.34737 2.91701C4.27253 2.87733 4.18664 2.86053 4.10139 2.86892C4.01614 2.87731 3.93569 2.91046 3.871 2.96387C3.80631 3.01728 3.76053 3.08833 3.7399 3.16736C3.71926 3.24638 3.72478 3.32953 3.75571 3.40546L6.19071 9.35642C6.22839 9.4486 6.22839 9.55083 6.19071 9.64301L3.75487 15.594C3.72377 15.67 3.71815 15.7533 3.73879 15.8325C3.75942 15.9117 3.8053 15.9828 3.87015 16.0363C3.935 16.0898 4.01566 16.1229 4.10108 16.1311C4.1865 16.1394 4.27252 16.1224 4.34737 16.0824Z" stroke="black" stroke-width="1.25" stroke-linecap="round" stroke-linejoin="round"/>
<path d="M4.34737 16.0825L16.0207 9.84421C16.0848 9.80969 16.1382 9.75962 16.1753 9.69912C16.2124 9.63862 16.2319 9.56986 16.2319 9.49984C16.2319 9.42982 16.2124 9.36105 16.1753 9.30055C16.1382 9.24005 16.0848 9.18998 16.0207 9.15546L4.34737 2.91713C4.27253 2.87745 4.18664 2.86066 4.10139 2.86904C4.01614 2.87743 3.93569 2.91059 3.871 2.96399C3.80631 3.0174 3.76053 3.08846 3.7399 3.16748C3.71926 3.2465 3.72478 3.32965 3.75571 3.40559L6.19071 9.35654C6.22839 9.44872 6.22839 9.55095 6.19071 9.64313L3.75487 15.5941C3.72377 15.6701 3.71815 15.7534 3.73879 15.8326C3.75942 15.9118 3.8053 15.983 3.87015 16.0364C3.935 16.0899 4.01566 16.123 4.10108 16.1313C4.1865 16.1395 4.27252 16.1225 4.34737 16.0825Z" stroke="black" stroke-width="1.25" stroke-linecap="round" stroke-linejoin="round"/>
</svg>
