<svg width="20" height="20" viewBox="0 0 20 20" fill="none" xmlns="http://www.w3.org/2000/svg">
<path d="M3.84667 15.8337C3.46278 15.8337 3.1425 15.7053 2.88583 15.4487C2.62917 15.192 2.50056 14.8714 2.5 14.487V5.51366C2.5 5.12977 2.62861 4.80949 2.88583 4.55283C3.14306 4.29616 3.46306 4.16755 3.84583 4.16699H16.1542C16.5375 4.16699 16.8575 4.2956 17.1142 4.55283C17.3708 4.81005 17.4994 5.13033 17.5 5.51366V14.4878C17.5 14.8712 17.3714 15.1914 17.1142 15.4487C16.8569 15.7059 16.5369 15.8342 16.1542 15.8337H3.84667ZM10 9.96699C10.0694 9.96699 10.1344 9.95644 10.195 9.93533C10.255 9.91421 10.3144 9.88838 10.3733 9.85783L16.3975 5.91366C16.4764 5.86588 16.5278 5.8006 16.5517 5.71783C16.5756 5.63505 16.5711 5.55255 16.5383 5.47033C16.5172 5.3631 16.4472 5.28533 16.3283 5.23699C16.21 5.18921 16.0953 5.19894 15.9842 5.26616L10 9.16699L4.01667 5.26699C3.90556 5.19921 3.79333 5.18477 3.68 5.22366C3.56667 5.26255 3.49389 5.33921 3.46167 5.45366C3.42944 5.53921 3.42528 5.62616 3.44917 5.71449C3.47306 5.80283 3.52417 5.86949 3.6025 5.91449L9.62667 9.85783C9.68556 9.88838 9.745 9.91421 9.805 9.93533C9.86556 9.95588 9.93056 9.96616 10 9.96616" fill="#212121"/>
<path d="M3.84667 15.8337C3.46278 15.8337 3.1425 15.7053 2.88583 15.4487C2.62917 15.192 2.50056 14.8714 2.5 14.487V5.51366C2.5 5.12977 2.62861 4.80949 2.88583 4.55283C3.14306 4.29616 3.46306 4.16755 3.84583 4.16699H16.1542C16.5375 4.16699 16.8575 4.2956 17.1142 4.55283C17.3708 4.81005 17.4994 5.13033 17.5 5.51366V14.4878C17.5 14.8712 17.3714 15.1914 17.1142 15.4487C16.8569 15.7059 16.5369 15.8342 16.1542 15.8337H3.84667ZM10 9.96699C10.0694 9.96699 10.1344 9.95644 10.195 9.93533C10.255 9.91421 10.3144 9.88838 10.3733 9.85783L16.3975 5.91366C16.4764 5.86588 16.5278 5.8006 16.5517 5.71783C16.5756 5.63505 16.5711 5.55255 16.5383 5.47033C16.5172 5.3631 16.4472 5.28533 16.3283 5.23699C16.21 5.18921 16.0953 5.19894 15.9842 5.26616L10 9.16699L4.01667 5.26699C3.90556 5.19921 3.79333 5.18477 3.68 5.22366C3.56667 5.26255 3.49389 5.33921 3.46167 5.45366C3.42944 5.53921 3.42528 5.62616 3.44917 5.71449C3.47306 5.80283 3.52417 5.86949 3.6025 5.91449L9.62667 9.85783C9.68556 9.88838 9.745 9.91421 9.805 9.93533C9.86556 9.95588 9.93056 9.96616 10 9.96616" fill="black" fill-opacity="0.2"/>
</svg>
