<svg width="16" height="7" viewBox="0 0 16 7" fill="none" xmlns="http://www.w3.org/2000/svg">
<g clip-path="url(#clip0_233_4098)">
<path d="M8 0.499765C7.93442 0.498966 7.86941 0.511899 7.80913 0.537732C7.74885 0.563566 7.69465 0.601728 7.65 0.649765L3.15 5.14977C2.95 5.34977 2.95 5.65977 3.15 5.85977C3.35 6.05977 3.66 6.05977 3.86 5.85977L8.01 1.70977L12.15 5.84977C12.35 6.04977 12.66 6.04977 12.86 5.84977C13.06 5.64977 13.06 5.33977 12.86 5.13977L8.36 0.639765C8.26 0.539765 8.13 0.489765 8.01 0.489765L8 0.499765Z" fill="#0C396D"/>
</g>
<defs>
<clipPath id="clip0_233_4098">
<rect width="16" height="7" fill="white" transform="matrix(1 0 0 -1 0 7)"/>
</clipPath>
</defs>
</svg>
