<svg width="20" height="20" viewBox="0 0 20 20" fill="none" xmlns="http://www.w3.org/2000/svg">
<path d="M17.6172 12.3828V11.2109C17.6172 10.2417 16.8286 9.45312 15.8594 9.45312H8.82812C8.6227 9.45312 8.42559 9.48887 8.24219 9.55391V3.41484C8.92418 3.17297 9.41406 2.52168 9.41406 1.75781C9.41406 0.788555 8.62551 0 7.65625 0H2.96875C2.64516 0 2.38281 0.262344 2.38281 0.585938C2.38281 1.66836 2.38281 10.2104 2.38281 11.2109C2.38281 11.9748 2.8727 12.6261 3.55469 12.868V14.7266C3.55469 15.8015 3.97871 16.8331 4.72656 17.597V19.4141C4.72656 19.7377 4.98891 20 5.3125 20C5.98945 20 15.2674 20 15.8594 20C16.183 20 16.4453 19.7377 16.4453 19.4141C16.4453 19.0905 16.183 18.8281 15.8594 18.8281H14.1016V18.1254C16.2495 17.029 17.6172 14.8157 17.6172 12.3828ZM8.82812 10.625H15.8594C16.1825 10.625 16.4453 10.8879 16.4453 11.2109V11.7969H8.24219V11.2109C8.24219 10.8879 8.50504 10.625 8.82812 10.625ZM3.55469 1.17188H7.65625C7.97934 1.17188 8.24219 1.43473 8.24219 1.75781C8.24219 2.0809 7.97934 2.34375 7.65625 2.34375H3.55469V1.17188ZM4.14062 11.7969C3.81754 11.7969 3.55469 11.534 3.55469 11.2109V3.51562H7.07031C7.07031 4.19492 7.07031 11.3387 7.07031 11.7969H4.14062ZM13.281 17.2177C13.0676 17.3109 12.9297 17.5217 12.9297 17.7546V18.8281H5.89844V17.347C5.89844 17.1803 5.82746 17.0215 5.70328 16.9104C5.08254 16.3548 4.72656 15.5589 4.72656 14.7266V12.9648C6.07559 12.9648 16.3104 12.9648 16.4128 12.9648C16.2056 14.8239 15.0225 16.4568 13.281 17.2177Z" fill="#0C396D"/>
</svg>
