<svg width="48" height="48" viewBox="0 0 48 48" fill="none" xmlns="http://www.w3.org/2000/svg">
<path d="M15 26C19.4111 26 23 22.4111 23 18C23 13.5889 19.4111 10 15 10C10.5889 10 7 13.5889 7 18C7 22.4111 10.5889 26 15 26ZM15 12C18.3086 12 21 14.6914 21 18C21 21.3086 18.3086 24 15 24C11.6914 24 9 21.3086 9 18C9 14.6914 11.6914 12 15 12Z" fill="#1281CE"/>
<path d="M37 21H29C26.9609 21 24.9629 21.7017 23.3735 22.9751C22.9429 23.3203 22.8735 23.9497 23.2188 24.3809C23.5645 24.812 24.1929 24.8799 24.6245 24.5356C25.8779 23.5312 27.3906 23 29 23H37C40.8594 23 44 26.1406 44 30V33C44 33.5518 43.5518 34 43 34H40V28C40 27.4473 39.5527 27 39 27C38.4473 27 38 27.4473 38 28V34H27.4749C26.2355 30.5101 22.9094 28 19 28H11C6.0376 28 2 32.0371 2 37V40C2 41.6543 3.3457 43 5 43H25C26.6543 43 28 41.6543 28 40V37C28 36.6617 27.9776 36.3287 27.941 36H43C44.6543 36 46 34.6543 46 33V30C46 25.0371 41.9629 21 37 21ZM26 40C26 40.5518 25.5518 41 25 41H22V35C22 34.4473 21.5522 34 21 34C20.4478 34 20 34.4473 20 35V41H10V35C10 34.4473 9.55225 34 9 34C8.44775 34 8 34.4473 8 35V41H5C4.44873 41 4 40.5518 4 40V37C4 33.1406 7.14014 30 11 30H19C22.8599 30 26 33.1406 26 37V40Z" fill="#1281CE"/>
<path d="M32 19C36.4111 19 40 15.4111 40 11C40 6.58887 36.4111 3 32 3C27.5889 3 24 6.58887 24 11C24 15.4111 27.5889 19 32 19ZM32 5C35.3086 5 38 7.69141 38 11C38 14.3086 35.3086 17 32 17C28.6914 17 26 14.3086 26 11C26 7.69141 28.6914 5 32 5Z" fill="#1281CE"/>
</svg>
