<svg width="20" height="20" viewBox="0 0 20 20" fill="none" xmlns="http://www.w3.org/2000/svg">
<path d="M10.0033 9.775C10.3739 9.775 10.6906 9.64306 10.9533 9.37917C11.2161 9.11528 11.3472 8.79778 11.3467 8.42667C11.3461 8.05556 11.2139 7.73889 10.95 7.47667C10.6861 7.21444 10.3686 7.08333 9.9975 7.08333C9.62639 7.08333 9.30973 7.21556 9.0475 7.48C8.78528 7.74444 8.65417 8.06194 8.65417 8.4325C8.65417 8.80306 8.78611 9.11972 9.05 9.3825C9.31389 9.64528 9.63167 9.77639 10.0033 9.77583M10 17.5158C8.04167 15.7842 6.56667 14.1692 5.575 12.6708C4.58278 11.1725 4.08667 9.80889 4.08667 8.58C4.08667 6.81722 4.66056 5.36333 5.80834 4.21833C6.95667 3.07278 8.35389 2.5 10 2.5C11.6461 2.5 13.0433 3.07278 14.1917 4.21833C15.3394 5.36333 15.9133 6.81722 15.9133 8.58C15.9133 9.80889 15.4175 11.1725 14.4258 12.6708C13.4336 14.1692 11.9583 15.7842 10 17.5158Z" fill="#212121"/>
<path d="M10.0033 9.775C10.3739 9.775 10.6906 9.64306 10.9533 9.37917C11.2161 9.11528 11.3472 8.79778 11.3467 8.42667C11.3461 8.05556 11.2139 7.73889 10.95 7.47667C10.6861 7.21444 10.3686 7.08333 9.9975 7.08333C9.62639 7.08333 9.30973 7.21556 9.0475 7.48C8.78528 7.74444 8.65417 8.06194 8.65417 8.4325C8.65417 8.80306 8.78611 9.11972 9.05 9.3825C9.31389 9.64528 9.63167 9.77639 10.0033 9.77583M10 17.5158C8.04167 15.7842 6.56667 14.1692 5.575 12.6708C4.58278 11.1725 4.08667 9.80889 4.08667 8.58C4.08667 6.81722 4.66056 5.36333 5.80834 4.21833C6.95667 3.07278 8.35389 2.5 10 2.5C11.6461 2.5 13.0433 3.07278 14.1917 4.21833C15.3394 5.36333 15.9133 6.81722 15.9133 8.58C15.9133 9.80889 15.4175 11.1725 14.4258 12.6708C13.4336 14.1692 11.9583 15.7842 10 17.5158Z" fill="black" fill-opacity="0.2"/>
</svg>
