<svg width="32" height="32" viewBox="0 0 32 32" fill="none" xmlns="http://www.w3.org/2000/svg">
<path d="M3.95581 13.9947V20.6627C3.95581 24.436 3.95581 26.3213 5.12648 27.4947C6.29981 28.6667 8.18381 28.6667 11.9558 28.6667H19.9558C23.7265 28.6667 25.6118 28.6667 26.7838 27.4933C27.9558 26.3213 27.9558 24.436 27.9558 20.6627V13.9947M9.28914 23.9907H14.6225" stroke="#1281CE" stroke-width="1.5" stroke-linecap="round" stroke-linejoin="round"/>
<path d="M13.4719 11.224C13.0959 12.5813 11.7279 14.924 9.13056 15.264C6.83723 15.5627 5.09589 14.5627 4.65189 14.144C4.16256 13.804 3.04523 12.7173 2.77189 12.0387C2.49856 11.3587 2.81723 9.88932 3.04523 9.28932L3.95589 6.65065C4.17856 5.98799 4.69989 4.42132 5.23323 3.89065C5.76656 3.35999 6.84656 3.33865 7.29189 3.33865H16.6332C19.0372 3.37199 24.2946 3.31732 25.3332 3.33865C26.3732 3.35999 26.9972 4.23199 27.1799 4.60532C28.7306 8.35999 29.3332 10.5107 29.3332 11.4267C29.1306 12.404 28.2932 14.248 25.3332 15.0587C22.2572 15.9013 20.5132 14.2627 19.9666 13.632M12.2066 13.632C12.6399 14.1653 13.9986 15.2347 15.9666 15.2627C17.9359 15.2893 19.6359 13.916 20.2399 13.2253C20.4106 13.0213 20.7799 12.4173 21.1639 11.2227" stroke="#1281CE" stroke-width="1.5" stroke-linecap="round" stroke-linejoin="round"/>
</svg>
