<svg width="96" height="40" viewBox="0 0 96 40" fill="none" xmlns="http://www.w3.org/2000/svg">
<path d="M10.396 25.9997L9.262 22.5977H4.564L3.466 25.9997H1.396L5.68 13.4357H8.236L12.52 25.9997H10.396ZM6.958 15.3077H6.868L5.05 20.8517H8.758L6.958 15.3077Z" fill="white"/>
<path d="M17.094 26.2157C16.206 26.2157 15.462 26.0597 14.862 25.7477C14.262 25.4357 13.74 25.0037 13.296 24.4517L14.556 23.2997C14.904 23.7197 15.288 24.0497 15.708 24.2897C16.14 24.5177 16.638 24.6317 17.202 24.6317C17.778 24.6317 18.204 24.5237 18.48 24.3077C18.768 24.0797 18.912 23.7677 18.912 23.3717C18.912 23.0717 18.81 22.8197 18.606 22.6157C18.414 22.3997 18.072 22.2617 17.58 22.2017L16.716 22.0937C15.756 21.9737 15 21.6977 14.448 21.2657C13.908 20.8217 13.638 20.1677 13.638 19.3037C13.638 18.8477 13.722 18.4457 13.89 18.0977C14.058 17.7377 14.292 17.4377 14.592 17.1977C14.904 16.9457 15.27 16.7537 15.69 16.6217C16.122 16.4897 16.596 16.4237 17.112 16.4237C17.952 16.4237 18.636 16.5557 19.164 16.8197C19.704 17.0837 20.184 17.4497 20.604 17.9177L19.398 19.0697C19.158 18.7817 18.84 18.5357 18.444 18.3317C18.06 18.1157 17.616 18.0077 17.112 18.0077C16.572 18.0077 16.17 18.1157 15.906 18.3317C15.654 18.5477 15.528 18.8297 15.528 19.1777C15.528 19.5377 15.642 19.8077 15.87 19.9877C16.098 20.1677 16.464 20.2997 16.968 20.3837L17.832 20.4917C18.864 20.6477 19.614 20.9537 20.082 21.4097C20.562 21.8537 20.802 22.4537 20.802 23.2097C20.802 23.6657 20.712 24.0797 20.532 24.4517C20.364 24.8117 20.118 25.1237 19.794 25.3877C19.47 25.6517 19.08 25.8557 18.624 25.9997C18.168 26.1437 17.658 26.2157 17.094 26.2157Z" fill="white"/>
<path d="M25.685 26.2157C24.797 26.2157 24.053 26.0597 23.453 25.7477C22.853 25.4357 22.331 25.0037 21.887 24.4517L23.147 23.2997C23.495 23.7197 23.879 24.0497 24.299 24.2897C24.731 24.5177 25.229 24.6317 25.793 24.6317C26.369 24.6317 26.795 24.5237 27.071 24.3077C27.359 24.0797 27.503 23.7677 27.503 23.3717C27.503 23.0717 27.401 22.8197 27.197 22.6157C27.005 22.3997 26.663 22.2617 26.171 22.2017L25.307 22.0937C24.347 21.9737 23.591 21.6977 23.039 21.2657C22.499 20.8217 22.229 20.1677 22.229 19.3037C22.229 18.8477 22.313 18.4457 22.481 18.0977C22.649 17.7377 22.883 17.4377 23.183 17.1977C23.495 16.9457 23.861 16.7537 24.281 16.6217C24.713 16.4897 25.187 16.4237 25.703 16.4237C26.543 16.4237 27.227 16.5557 27.755 16.8197C28.295 17.0837 28.775 17.4497 29.195 17.9177L27.989 19.0697C27.749 18.7817 27.431 18.5357 27.035 18.3317C26.651 18.1157 26.207 18.0077 25.703 18.0077C25.163 18.0077 24.761 18.1157 24.497 18.3317C24.245 18.5477 24.119 18.8297 24.119 19.1777C24.119 19.5377 24.233 19.8077 24.461 19.9877C24.689 20.1677 25.055 20.2997 25.559 20.3837L26.423 20.4917C27.455 20.6477 28.205 20.9537 28.673 21.4097C29.153 21.8537 29.393 22.4537 29.393 23.2097C29.393 23.6657 29.303 24.0797 29.123 24.4517C28.955 24.8117 28.709 25.1237 28.385 25.3877C28.061 25.6517 27.671 25.8557 27.215 25.9997C26.759 26.1437 26.249 26.2157 25.685 26.2157Z" fill="white"/>
<path d="M35.0836 26.2157C34.4116 26.2157 33.8116 26.1017 33.2836 25.8737C32.7556 25.6457 32.3056 25.3217 31.9336 24.9017C31.5616 24.4697 31.2736 23.9537 31.0696 23.3537C30.8776 22.7417 30.7816 22.0637 30.7816 21.3197C30.7816 20.5757 30.8776 19.9037 31.0696 19.3037C31.2736 18.6917 31.5616 18.1757 31.9336 17.7557C32.3056 17.3237 32.7556 16.9937 33.2836 16.7657C33.8116 16.5377 34.4116 16.4237 35.0836 16.4237C35.7676 16.4237 36.3676 16.5437 36.8836 16.7837C37.4116 17.0237 37.8496 17.3597 38.1976 17.7917C38.5456 18.2117 38.8036 18.7037 38.9716 19.2677C39.1516 19.8317 39.2416 20.4377 39.2416 21.0857V21.8237H32.8156V22.1297C32.8156 22.8497 33.0256 23.4437 33.4456 23.9117C33.8776 24.3677 34.4896 24.5957 35.2816 24.5957C35.8576 24.5957 36.3436 24.4697 36.7396 24.2177C37.1356 23.9657 37.4716 23.6237 37.7476 23.1917L38.8996 24.3257C38.5516 24.9017 38.0476 25.3637 37.3876 25.7117C36.7276 26.0477 35.9596 26.2157 35.0836 26.2157ZM35.0836 17.9537C34.7476 17.9537 34.4356 18.0137 34.1476 18.1337C33.8716 18.2537 33.6316 18.4217 33.4276 18.6377C33.2356 18.8537 33.0856 19.1117 32.9776 19.4117C32.8696 19.7117 32.8156 20.0417 32.8156 20.4017V20.5277H37.1716V20.3477C37.1716 19.6277 36.9856 19.0517 36.6136 18.6197C36.2416 18.1757 35.7316 17.9537 35.0836 17.9537Z" fill="white"/>
<path d="M43.8075 25.9997C43.1235 25.9997 42.6075 25.8257 42.2595 25.4777C41.9115 25.1177 41.7375 24.6137 41.7375 23.9657V18.2417H40.2795V16.6397H41.0715C41.3955 16.6397 41.6175 16.5677 41.7375 16.4237C41.8695 16.2797 41.9355 16.0457 41.9355 15.7217V14.0837H43.6995V16.6397H45.6615V18.2417H43.6995V24.3977H45.5175V25.9997H43.8075Z" fill="white"/>
<path d="M56.5076 26.2157C54.8636 26.2157 53.5736 25.6637 52.6376 24.5597C51.7016 23.4437 51.2336 21.8297 51.2336 19.7177C51.2336 18.6617 51.3536 17.7317 51.5936 16.9277C51.8336 16.1237 52.1816 15.4457 52.6376 14.8937C53.0936 14.3417 53.6456 13.9277 54.2936 13.6517C54.9536 13.3637 55.6916 13.2197 56.5076 13.2197C57.5996 13.2197 58.5116 13.4597 59.2436 13.9397C59.9876 14.4197 60.5696 15.1277 60.9896 16.0637L59.2796 16.9997C59.0636 16.3997 58.7276 15.9257 58.2716 15.5777C57.8276 15.2177 57.2396 15.0377 56.5076 15.0377C55.5356 15.0377 54.7736 15.3677 54.2216 16.0277C53.6696 16.6877 53.3936 17.5997 53.3936 18.7637V20.6717C53.3936 21.8357 53.6696 22.7477 54.2216 23.4077C54.7736 24.0677 55.5356 24.3977 56.5076 24.3977C57.2636 24.3977 57.8756 24.2057 58.3436 23.8217C58.8236 23.4257 59.1776 22.9217 59.4056 22.3097L61.0436 23.2997C60.6236 24.2117 60.0356 24.9257 59.2796 25.4417C58.5236 25.9577 57.5996 26.2157 56.5076 26.2157Z" fill="white"/>
<path d="M69.7158 25.9997C69.1998 25.9997 68.8038 25.8557 68.5278 25.5677C68.2518 25.2677 68.0838 24.8897 68.0238 24.4337H67.9338C67.7538 25.0217 67.4238 25.4657 66.9438 25.7657C66.4638 26.0657 65.8818 26.2157 65.1978 26.2157C64.2258 26.2157 63.4758 25.9637 62.9478 25.4597C62.4318 24.9557 62.1738 24.2777 62.1738 23.4257C62.1738 22.4897 62.5098 21.7877 63.1818 21.3197C63.8658 20.8517 64.8618 20.6177 66.1698 20.6177H67.8618V19.8257C67.8618 19.2497 67.7058 18.8057 67.3938 18.4937C67.0818 18.1817 66.5958 18.0257 65.9358 18.0257C65.3838 18.0257 64.9338 18.1457 64.5858 18.3857C64.2378 18.6257 63.9438 18.9317 63.7038 19.3037L62.5338 18.2417C62.8458 17.7137 63.2838 17.2817 63.8478 16.9457C64.4118 16.5977 65.1498 16.4237 66.0618 16.4237C67.2738 16.4237 68.2038 16.7057 68.8518 17.2697C69.4998 17.8337 69.8238 18.6437 69.8238 19.6997V24.3977H70.8138V25.9997H69.7158ZM65.7558 24.7217C66.3678 24.7217 66.8718 24.5897 67.2678 24.3257C67.6638 24.0497 67.8618 23.6837 67.8618 23.2277V21.8777H66.2058C64.8498 21.8777 64.1718 22.2977 64.1718 23.1377V23.4617C64.1718 23.8817 64.3098 24.1997 64.5858 24.4157C64.8738 24.6197 65.2638 24.7217 65.7558 24.7217Z" fill="white"/>
<path d="M72.5387 25.9997V16.6397H74.5007V18.4397H74.5907C74.7227 17.9597 74.9987 17.5397 75.4187 17.1797C75.8387 16.8197 76.4207 16.6397 77.1647 16.6397H77.6867V18.5297H76.9128C76.1328 18.5297 75.5327 18.6557 75.1127 18.9077C74.7048 19.1597 74.5007 19.5317 74.5007 20.0237V25.9997H72.5387Z" fill="white"/>
<path d="M85.0295 24.4517H84.9395C84.7355 25.0037 84.3995 25.4357 83.9315 25.7477C83.4755 26.0597 82.9355 26.2157 82.3115 26.2157C81.1235 26.2157 80.2055 25.7897 79.5575 24.9377C78.9095 24.0737 78.5855 22.8677 78.5855 21.3197C78.5855 19.7717 78.9095 18.5717 79.5575 17.7197C80.2055 16.8557 81.1235 16.4237 82.3115 16.4237C82.9355 16.4237 83.4755 16.5797 83.9315 16.8917C84.3995 17.1917 84.7355 17.6237 84.9395 18.1877H85.0295V12.6797H86.9915V25.9997H85.0295V24.4517ZM82.9055 24.5237C83.5055 24.5237 84.0095 24.3797 84.4175 24.0917C84.8255 23.7917 85.0295 23.4017 85.0295 22.9217V19.7177C85.0295 19.2377 84.8255 18.8537 84.4175 18.5657C84.0095 18.2657 83.5055 18.1157 82.9055 18.1157C82.2215 18.1157 81.6755 18.3377 81.2675 18.7817C80.8595 19.2137 80.6555 19.7897 80.6555 20.5097V22.1297C80.6555 22.8497 80.8595 23.4317 81.2675 23.8757C81.6755 24.3077 82.2215 24.5237 82.9055 24.5237Z" fill="white"/>
<path d="M90.8038 26.2157C90.3598 26.2157 90.0298 26.1017 89.8138 25.8737C89.5978 25.6337 89.4898 25.3397 89.4898 24.9917V24.7217C89.4898 24.3737 89.5978 24.0857 89.8138 23.8577C90.0298 23.6177 90.3598 23.4977 90.8038 23.4977C91.2478 23.4977 91.5778 23.6177 91.7938 23.8577C92.0098 24.0857 92.1178 24.3737 92.1178 24.7217V24.9917C92.1178 25.3397 92.0098 25.6337 91.7938 25.8737C91.5778 26.1017 91.2478 26.2157 90.8038 26.2157Z" fill="white"/>
</svg>
