<svg width="40" height="40" viewBox="0 0 40 40" fill="none" xmlns="http://www.w3.org/2000/svg">
<path d="M3.33362 16.6672H13.5503C13.956 16.6631 14.3444 16.5018 14.6336 16.2172L18.917 12.1172C19.2044 11.8301 19.5941 11.6689 20.0003 11.6689C20.4065 11.6689 20.7961 11.8301 21.0836 12.1172L25.367 16.2172C25.6562 16.5018 26.0445 16.6631 26.4503 16.6672H36.667" stroke="#1281CE" stroke-width="1.5" stroke-linecap="round" stroke-linejoin="round"/>
<path d="M5.00028 35V16.6667L8.26862 9.04C9.70528 5.69 10.752 5 14.397 5H25.6036C29.2503 5 30.2953 5.69 31.732 9.04L35.0003 16.6667V35M3.33362 35H36.667M20.0136 18.3333H19.9986M15.8336 35V27.5C15.8336 26.837 16.097 26.2011 16.5659 25.7322C17.0347 25.2634 17.6706 25 18.3336 25H21.667C22.33 25 22.9659 25.2634 23.4347 25.7322C23.9036 26.2011 24.167 26.837 24.167 27.5V35M10.0003 23.3333H11.667M28.3336 23.3333H30.0003" stroke="#1281CE" stroke-width="1.5" stroke-linecap="round" stroke-linejoin="round"/>
</svg>
