<svg width="48" height="48" viewBox="0 0 48 48" fill="none" xmlns="http://www.w3.org/2000/svg">
<path d="M10.3759 10.1991C14.0927 6.56078 19.0344 4.55706 24.2907 4.55706C28.3104 4.55706 32.1966 5.75403 35.4649 7.96367L32.9418 8.21699L33.2083 10.7607L40 10.0788L39.3034 3.43042L36.7048 3.69133L36.9307 5.84702C33.232 3.35158 28.8366 2 24.2907 2C18.3367 2 12.739 4.26974 8.52883 8.39104C4.31867 12.5123 2 17.9919 2 23.8203C2 28.1837 3.31167 32.3954 5.79316 36L7.95937 34.571C7.92933 34.5273 7.90016 34.4832 7.87047 34.4393C5.73874 31.2877 4.61219 27.6197 4.61219 23.8203C4.61219 18.675 6.65911 13.8375 10.3759 10.1991Z" fill="#1281CE"/>
<path d="M42.2069 12L40.0406 13.429C40.0707 13.4726 40.0998 13.5168 40.1295 13.5607C42.2612 16.7123 43.3878 20.3803 43.3878 24.1797C43.3878 29.3251 41.3409 34.1625 37.6241 37.8009C33.9074 41.4392 28.9657 43.4429 23.7093 43.4429C19.6896 43.4429 15.8034 42.246 12.5351 40.0363L15.0582 39.783L14.7917 37.2393L8 37.9212L8.69658 44.5696L11.2952 44.3087L11.0693 42.153C14.7681 44.6484 19.1635 46 23.7093 46C29.6633 46 35.261 43.7303 39.4713 39.609C43.6814 35.4877 46 30.0081 46 24.1797C46 19.8163 44.6884 15.6046 42.2069 12Z" fill="#1281CE"/>
<path d="M12.7469 27.021L14.3373 25.4831C15.5421 24.3235 15.7711 23.542 15.7711 22.6849C15.7711 21.0462 14.4337 20 12.494 20C10.8313 20 9.63852 20.7311 9 21.8403L10.7711 22.8739C11.1084 22.3068 11.6627 22.0168 12.2771 22.0168C13 22.0168 13.3615 22.3571 13.3615 22.9244C13.3615 23.29 13.2651 23.6934 12.5904 24.3488L9.43371 27.437V29H16V27.021L12.7469 27.021Z" fill="#1281CE"/>
<path d="M23.7527 27.2772H25V25.2586H23.7527V23.7286H21.5098V25.2586H19.8066L23.2249 20H20.7661L17 25.6186V27.2772H21.4378V29H23.7527V27.2772Z" fill="#1281CE"/>
<path d="M28.0321 30L32 18H29.968L26 30H28.0321Z" fill="#1281CE"/>
<path d="M34.0397 23.4071V22.0186H36.2603L33.4121 29H36.019L39 21.5943V20H32V23.4071H34.0397Z" fill="#1281CE"/>
</svg>
