<svg width="40" height="40" viewBox="0 0 40 40" fill="none" xmlns="http://www.w3.org/2000/svg">
<path d="M20 11.6663V6.11134C20 4.80134 20.0017 4.14634 20.3934 3.73967C20.785 3.33301 21.4167 3.33301 22.6834 3.33301H26.205C27.4417 3.33301 28.06 3.33134 28.6 3.59467C29.14 3.85801 29.535 4.34967 30.3267 5.33301L30.64 5.72134C31.325 6.57134 31.6667 6.99634 31.6667 7.49967C31.6667 8.00301 31.3234 8.42801 30.64 9.27801L30.3267 9.66801C29.535 10.6497 29.14 11.1413 28.6 11.4047C28.0584 11.6663 27.4417 11.6663 26.205 11.6663H20ZM20 11.6663H13.795C12.5584 11.6663 11.94 11.6647 11.4 11.928C10.86 12.1913 10.465 12.683 9.67337 13.6663L9.36004 14.0547C8.67504 14.9047 8.33337 15.3297 8.33337 15.833C8.33337 16.3363 8.67671 16.7613 9.36004 17.6113L9.67337 18.0013C10.465 18.983 10.86 19.4747 11.4 19.738C11.9417 19.9997 12.5584 19.9997 13.795 19.9997H20V11.6663ZM20 36.6663V4.99967M15 36.6663H25M30.3267 20.333C29.535 19.3497 29.14 18.858 28.6 18.5947C28.06 18.3313 27.4417 18.333 26.205 18.333H20V26.6663H26.205C27.4417 26.6663 28.0584 26.6663 28.6 26.4047C29.14 26.1413 29.535 25.6497 30.3267 24.668L30.64 24.278C31.3234 23.428 31.6667 23.003 31.6667 22.4997C31.6667 21.9963 31.325 21.5713 30.64 20.7213L30.3267 20.333Z" stroke="#1281CE" stroke-width="1.5" stroke-linecap="round" stroke-linejoin="round"/>
</svg>
