<svg width="20" height="20" viewBox="0 0 20 20" fill="none" xmlns="http://www.w3.org/2000/svg">
<g clip-path="url(#clip0_233_4830)">
<path d="M17.222 4.44434H12.7776V5.55545H17.222V17.2221H12.7776V18.3332H18.3331V5.55545C18.3331 5.26076 18.2161 4.97815 18.0077 4.76977C17.7993 4.5614 17.5167 4.44434 17.222 4.44434Z" fill="black"/>
<path d="M11.0444 1.66626H3.39995C3.08758 1.66626 2.78801 1.79035 2.56713 2.01122C2.34625 2.2321 2.22217 2.53167 2.22217 2.84404V18.3329H12.2222V2.84404C12.2222 2.53167 12.0981 2.2321 11.8772 2.01122C11.6563 1.79035 11.3568 1.66626 11.0444 1.66626ZM11.1111 17.2218H9.44439V15.5551H4.99995V17.2218H3.33328V2.84404C3.33328 2.83528 3.335 2.82661 3.33835 2.81853C3.3417 2.81044 3.34661 2.80309 3.35281 2.7969C3.359 2.79071 3.36635 2.7858 3.37443 2.78245C3.38252 2.7791 3.39119 2.77737 3.39995 2.77737H11.0444C11.0531 2.77737 11.0618 2.7791 11.0699 2.78245C11.078 2.7858 11.0853 2.79071 11.0915 2.7969C11.0977 2.80309 11.1026 2.81044 11.106 2.81853C11.1093 2.82661 11.1111 2.83528 11.1111 2.84404V17.2218Z" fill="black"/>
<path d="M4.44434 4.44434H5.55545V5.55545H4.44434V4.44434Z" fill="black"/>
<path d="M6.6665 4.44434H7.77762V5.55545H6.6665V4.44434Z" fill="black"/>
<path d="M8.88867 4.44434H9.99978V5.55545H8.88867V4.44434Z" fill="black"/>
<path d="M4.44434 7.2218H5.55545V8.33291H4.44434V7.2218Z" fill="black"/>
<path d="M6.6665 7.2218H7.77762V8.33291H6.6665V7.2218Z" fill="black"/>
<path d="M8.88867 7.2218H9.99978V8.33291H8.88867V7.2218Z" fill="black"/>
<path d="M4.44434 10H5.55545V11.1111H4.44434V10Z" fill="black"/>
<path d="M6.6665 10H7.77762V11.1111H6.6665V10Z" fill="black"/>
<path d="M8.88867 10H9.99978V11.1111H8.88867V10Z" fill="black"/>
<path d="M4.44434 12.7773H5.55545V13.8885H4.44434V12.7773Z" fill="black"/>
<path d="M6.6665 12.7773H7.77762V13.8885H6.6665V12.7773Z" fill="black"/>
<path d="M8.88867 12.7773H9.99978V13.8885H8.88867V12.7773Z" fill="black"/>
<path d="M12.7776 7.2218H13.8887V8.33291H12.7776V7.2218Z" fill="black"/>
<path d="M15 7.2218H16.1111V8.33291H15V7.2218Z" fill="black"/>
<path d="M12.7776 10H13.8887V11.1111H12.7776V10Z" fill="black"/>
<path d="M15 10H16.1111V11.1111H15V10Z" fill="black"/>
<path d="M12.7776 12.7773H13.8887V13.8885H12.7776V12.7773Z" fill="black"/>
<path d="M15 12.7773H16.1111V13.8885H15V12.7773Z" fill="black"/>
</g>
<defs>
<clipPath id="clip0_233_4830">
<rect width="20" height="20" fill="white"/>
</clipPath>
</defs>
</svg>
