<svg width="40" height="40" viewBox="0 0 40 40" fill="none" xmlns="http://www.w3.org/2000/svg">
<path d="M26.667 16.6667L30.2503 17.7417C32.5386 18.4283 33.6836 18.7717 34.3419 19.6583C35.0003 20.5417 35.0003 21.7383 35.0003 24.1267V36.6667M13.3336 15H18.3336M13.3336 21.6667H18.3336M20.0003 36.6667V31.6667C20.0003 30.095 20.0003 29.31 19.512 28.8217C19.0236 28.3333 18.2386 28.3333 16.667 28.3333H15.0003C13.4286 28.3333 12.6436 28.3333 12.1553 28.8217C11.667 29.31 11.667 30.095 11.667 31.6667V36.6667M3.33362 36.6667H36.667" stroke="#1281CE" stroke-width="1.5" stroke-linecap="round" stroke-linejoin="round"/>
<path d="M5.00024 36.6665V11.1949C5.00024 7.01152 5.00024 4.91818 6.31858 3.87985C7.63691 2.84152 9.57858 3.40652 13.4636 4.53318L21.7969 6.95152C24.1402 7.63152 25.3119 7.97152 25.9886 8.89985C26.6669 9.82652 26.6669 11.0882 26.6669 13.6149V36.6665" stroke="#1281CE" stroke-width="1.5" stroke-linecap="round" stroke-linejoin="round"/>
</svg>
