<svg width="48" height="48" viewBox="0 0 48 48" fill="none" xmlns="http://www.w3.org/2000/svg">
<path d="M38.5715 21.5566L33.7886 26.3377L31.7144 24.2497C31.5534 24.089 31.3352 23.9988 31.1077 23.999C30.8803 23.9991 30.6622 24.0896 30.5015 24.2506C30.3408 24.4115 30.2506 24.6297 30.2507 24.8572C30.2509 25.0847 30.3414 25.3027 30.5024 25.4635L33.1955 28.1566C33.3562 28.3173 33.5742 28.4076 33.8015 28.4076C34.0288 28.4076 34.2468 28.3173 34.4075 28.1566L39.7972 22.7686C39.8791 22.6895 39.9444 22.5949 39.9893 22.4904C40.0342 22.3858 40.0579 22.2733 40.0589 22.1595C40.0598 22.0457 40.0382 21.9328 39.9951 21.8275C39.952 21.7222 39.8883 21.6265 39.8078 21.546C39.7274 21.4655 39.6317 21.4018 39.5263 21.3588C39.421 21.3157 39.3081 21.294 39.1943 21.295C39.0805 21.2959 38.968 21.3196 38.8634 21.3645C38.7589 21.4094 38.6643 21.4747 38.5852 21.5566H38.5715Z" fill="#1281CE"/>
<path d="M45.4287 24.857C45.4242 22.4286 44.5615 20.08 42.993 18.2261C41.4246 16.3722 39.2513 15.1323 36.8572 14.7256V10.2856C36.8574 10.1729 36.8354 10.0614 36.7925 9.95724C36.7496 9.85311 36.6865 9.75847 36.607 9.67872L29.7498 2.82158C29.6701 2.74203 29.5754 2.67898 29.4713 2.63604C29.3672 2.59309 29.2556 2.57109 29.143 2.57129H8.57153C8.3442 2.57129 8.12619 2.6616 7.96544 2.82234C7.8047 2.98309 7.71439 3.2011 7.71439 3.42843V7.71415H3.42868C3.20135 7.71415 2.98333 7.80445 2.82258 7.9652C2.66184 8.12594 2.57153 8.34396 2.57153 8.57129V44.5713C2.57153 44.7986 2.66184 45.0166 2.82258 45.1774C2.98333 45.3381 3.20135 45.4284 3.42868 45.4284H32.5715C32.7989 45.4284 33.0169 45.3381 33.1776 45.1774C33.3384 45.0166 33.4287 44.7986 33.4287 44.5713V40.2856H36.0001C36.2274 40.2856 36.4454 40.1953 36.6062 40.0345C36.7669 39.8738 36.8572 39.6558 36.8572 39.4284V34.9884C39.2513 34.5817 41.4246 33.3418 42.993 31.4879C44.5615 29.634 45.4242 27.2854 45.4287 24.857ZM30.0001 5.49758L33.931 9.42843H30.0001V5.49758ZM31.7144 43.7141H4.28582V9.42843H7.71439V39.4284C7.71439 39.6558 7.8047 39.8738 7.96544 40.0345C8.12619 40.1953 8.3442 40.2856 8.57153 40.2856H31.7144V43.7141ZM35.143 38.5713H9.42868V4.28558H28.2858V10.2856C28.2858 10.5129 28.3761 10.7309 28.5369 10.8917C28.6976 11.0524 28.9156 11.1427 29.143 11.1427H35.143V14.5713C32.415 14.5713 29.7988 15.655 27.8699 17.5839C25.9409 19.5129 24.8572 22.1291 24.8572 24.857C24.8572 27.5849 25.9409 30.2012 27.8699 32.1301C29.7988 34.059 32.415 35.1427 35.143 35.1427V38.5713ZM35.143 33.4284C33.4477 33.4284 31.7905 32.9257 30.3809 31.9839C28.9714 31.042 27.8727 29.7034 27.224 28.1371C26.5752 26.5709 26.4055 24.8475 26.7362 23.1848C27.067 21.5221 27.8833 19.9948 29.082 18.7961C30.2808 17.5974 31.8081 16.781 33.4708 16.4503C35.1335 16.1195 36.8569 16.2893 38.4231 16.938C39.9893 17.5868 41.328 18.6854 42.2698 20.095C43.2117 21.5045 43.7144 23.1617 43.7144 24.857C43.7117 27.1295 42.8077 29.308 41.2009 30.9149C39.594 32.5218 37.4154 33.4257 35.143 33.4284Z" fill="#1281CE"/>
<path d="M18 23.3926L15.3463 26.0566L14.3177 25.028C14.157 24.8671 13.939 24.7766 13.7115 24.7764C13.484 24.7762 13.2658 24.8664 13.1049 25.0272C12.9439 25.1879 12.8534 25.4059 12.8533 25.6334C12.8531 25.8609 12.9433 26.0791 13.104 26.24L14.7377 27.872C14.8985 28.0327 15.1165 28.123 15.3437 28.123C15.571 28.123 15.789 28.0327 15.9497 27.872L19.2155 24.6149C19.3764 24.4541 19.4669 24.2361 19.4671 24.0086C19.4672 23.7812 19.377 23.563 19.2163 23.402C19.0556 23.2411 18.8375 23.1506 18.6101 23.1504C18.3826 23.1502 18.1644 23.2404 18.0035 23.4012L18 23.3926Z" fill="#1281CE"/>
<path d="M18 30.25L15.3463 32.914L14.3177 31.8854C14.2382 31.8057 14.1437 31.7425 14.0396 31.6993C13.9356 31.6562 13.8241 31.6339 13.7115 31.6338C13.5989 31.6337 13.4873 31.6558 13.3833 31.6989C13.2792 31.7419 13.1846 31.805 13.1049 31.8846C13.0252 31.9642 12.962 32.0587 12.9188 32.1627C12.8756 32.2667 12.8534 32.3782 12.8533 32.4908C12.8532 32.6034 12.8753 32.715 12.9183 32.8191C12.9613 32.9231 13.0245 33.0177 13.104 33.0974L14.7377 34.7294C14.8985 34.8901 15.1165 34.9804 15.3437 34.9804C15.571 34.9804 15.789 34.8901 15.9497 34.7294L19.2155 31.4723C19.3764 31.3116 19.4669 31.0935 19.4671 30.866C19.4672 30.6386 19.377 30.4204 19.2163 30.2594C19.0556 30.0985 18.8375 30.008 18.6101 30.0078C18.3826 30.0077 18.1644 30.0979 18.0035 30.2586L18 30.25Z" fill="#1281CE"/>
<path d="M13.7143 9.42815H24C24.2274 9.42815 24.4454 9.33785 24.6061 9.1771C24.7669 9.01636 24.8572 8.79834 24.8572 8.57101C24.8572 8.34368 24.7669 8.12566 24.6061 7.96492C24.4454 7.80417 24.2274 7.71387 24 7.71387H13.7143C13.487 7.71387 13.269 7.80417 13.1082 7.96492C12.9475 8.12566 12.8572 8.34368 12.8572 8.57101C12.8572 8.79834 12.9475 9.01636 13.1082 9.1771C13.269 9.33785 13.487 9.42815 13.7143 9.42815Z" fill="#1281CE"/>
<path d="M24 12.8574H13.7143C13.487 12.8574 13.269 12.9477 13.1082 13.1085C12.9475 13.2692 12.8572 13.4872 12.8572 13.7146C12.8572 13.9419 12.9475 14.1599 13.1082 14.3207C13.269 14.4814 13.487 14.5717 13.7143 14.5717H24C24.2274 14.5717 24.4454 14.4814 24.6061 14.3207C24.7669 14.1599 24.8572 13.9419 24.8572 13.7146C24.8572 13.4872 24.7669 13.2692 24.6061 13.1085C24.4454 12.9477 24.2274 12.8574 24 12.8574Z" fill="#1281CE"/>
<path d="M18.8572 18H13.7143C13.487 18 13.269 18.0903 13.1082 18.2511C12.9475 18.4118 12.8572 18.6298 12.8572 18.8571C12.8572 19.0845 12.9475 19.3025 13.1082 19.4632C13.269 19.624 13.487 19.7143 13.7143 19.7143H18.8572C19.0845 19.7143 19.3025 19.624 19.4633 19.4632C19.624 19.3025 19.7143 19.0845 19.7143 18.8571C19.7143 18.6298 19.624 18.4118 19.4633 18.2511C19.3025 18.0903 19.0845 18 18.8572 18Z" fill="#1281CE"/>
</svg>
