<svg width="19" height="20" viewBox="0 0 19 20" fill="none" xmlns="http://www.w3.org/2000/svg">
<path fill-rule="evenodd" clip-rule="evenodd" d="M14.25 8.5H10.6276L12.787 3.197C12.818 3.12091 12.8305 3.03792 12.8235 2.95547C12.8165 2.87301 12.7902 2.79368 12.7468 2.72459C12.7035 2.6555 12.6446 2.59881 12.5753 2.55961C12.506 2.52041 12.4286 2.49993 12.35 2.5H7.59997C7.50695 2.49991 7.41595 2.52858 7.33826 2.58245C7.26058 2.63631 7.19963 2.713 7.16297 2.803L4.31297 9.803C4.28199 9.87909 4.26943 9.96208 4.27644 10.0445C4.28344 10.127 4.30979 10.2063 4.35311 10.2754C4.39643 10.3445 4.45536 10.4012 4.52463 10.4404C4.5939 10.4796 4.67133 10.5001 4.74997 10.5H7.10027L4.30917 17.814C4.11917 18.311 4.70532 18.732 5.07582 18.364L9.84862 13.621L14.5587 9.38C14.6325 9.31357 14.6852 9.22493 14.7097 9.12601C14.7341 9.02709 14.7292 8.92266 14.6956 8.82678C14.662 8.73089 14.6012 8.64816 14.5215 8.58974C14.4419 8.53131 14.3471 8.49999 14.25 8.5ZM9.90752 9.5H12.9637L9.21307 12.878L5.99732 16.073L8.24407 10.186C8.27296 10.1101 8.28373 10.028 8.27546 9.94672C8.26718 9.86546 8.24011 9.78757 8.19661 9.71987C8.15311 9.65217 8.09451 9.59673 8.02594 9.5584C7.95737 9.52007 7.88091 9.50002 7.80327 9.5H5.47007L7.91347 3.5H11.6299L9.47052 8.803C9.43954 8.87909 9.42698 8.96208 9.43399 9.04453C9.44099 9.12699 9.46734 9.20632 9.51066 9.27541C9.55398 9.3445 9.61291 9.40119 9.68218 9.44039C9.75145 9.47959 9.82888 9.50007 9.90752 9.5Z" fill="#212121"/>
<path fill-rule="evenodd" clip-rule="evenodd" d="M14.25 8.5H10.6276L12.787 3.197C12.818 3.12091 12.8305 3.03792 12.8235 2.95547C12.8165 2.87301 12.7902 2.79368 12.7468 2.72459C12.7035 2.6555 12.6446 2.59881 12.5753 2.55961C12.506 2.52041 12.4286 2.49993 12.35 2.5H7.59997C7.50695 2.49991 7.41595 2.52858 7.33826 2.58245C7.26058 2.63631 7.19963 2.713 7.16297 2.803L4.31297 9.803C4.28199 9.87909 4.26943 9.96208 4.27644 10.0445C4.28344 10.127 4.30979 10.2063 4.35311 10.2754C4.39643 10.3445 4.45536 10.4012 4.52463 10.4404C4.5939 10.4796 4.67133 10.5001 4.74997 10.5H7.10027L4.30917 17.814C4.11917 18.311 4.70532 18.732 5.07582 18.364L9.84862 13.621L14.5587 9.38C14.6325 9.31357 14.6852 9.22493 14.7097 9.12601C14.7341 9.02709 14.7292 8.92266 14.6956 8.82678C14.662 8.73089 14.6012 8.64816 14.5215 8.58974C14.4419 8.53131 14.3471 8.49999 14.25 8.5ZM9.90752 9.5H12.9637L9.21307 12.878L5.99732 16.073L8.24407 10.186C8.27296 10.1101 8.28373 10.028 8.27546 9.94672C8.26718 9.86546 8.24011 9.78757 8.19661 9.71987C8.15311 9.65217 8.09451 9.59673 8.02594 9.5584C7.95737 9.52007 7.88091 9.50002 7.80327 9.5H5.47007L7.91347 3.5H11.6299L9.47052 8.803C9.43954 8.87909 9.42698 8.96208 9.43399 9.04453C9.44099 9.12699 9.46734 9.20632 9.51066 9.27541C9.55398 9.3445 9.61291 9.40119 9.68218 9.44039C9.75145 9.47959 9.82888 9.50007 9.90752 9.5Z" fill="black" fill-opacity="0.2"/>
</svg>
