<svg width="20" height="20" viewBox="0 0 20 20" fill="none" xmlns="http://www.w3.org/2000/svg">
<path d="M15.6525 16.9289L3.97917 10.3622C3.91505 10.3259 3.86171 10.2732 3.8246 10.2095C3.7875 10.1458 3.76794 10.0734 3.76794 9.9997C3.76794 9.926 3.7875 9.85361 3.8246 9.78993C3.86171 9.72625 3.91505 9.67355 3.97917 9.6372L15.6525 3.07054C15.7273 3.02877 15.8132 3.0111 15.8985 3.01992C15.9837 3.02875 16.0642 3.06365 16.1289 3.11987C16.1936 3.17609 16.2394 3.25088 16.26 3.33407C16.2806 3.41725 16.2751 3.50477 16.2442 3.58471L13.8092 9.84887C13.7715 9.9459 13.7715 10.0535 13.8092 10.1505L16.245 16.4147C16.2761 16.4947 16.2817 16.5824 16.2611 16.6658C16.2405 16.7491 16.1946 16.8241 16.1297 16.8803C16.0649 16.9366 15.9842 16.9715 15.8988 16.9802C15.8134 16.9888 15.7274 16.9709 15.6525 16.9289Z" stroke="black" stroke-width="1.25" stroke-linecap="round" stroke-linejoin="round"/>
<path d="M15.6525 16.929L3.97917 10.3623C3.91505 10.326 3.86171 10.2733 3.8246 10.2096C3.7875 10.1459 3.76794 10.0735 3.76794 9.99983C3.76794 9.92612 3.7875 9.85373 3.8246 9.79005C3.86171 9.72637 3.91505 9.67367 3.97917 9.63733L15.6525 3.07066C15.7273 3.02889 15.8132 3.01122 15.8985 3.02005C15.9837 3.02887 16.0642 3.06377 16.1289 3.11999C16.1936 3.17621 16.2394 3.25101 16.26 3.33419C16.2806 3.41737 16.2751 3.5049 16.2442 3.58483L13.8092 9.84899C13.7715 9.94602 13.7715 10.0536 13.8092 10.1507L16.245 16.4148C16.2761 16.4949 16.2817 16.5825 16.2611 16.6659C16.2405 16.7492 16.1946 16.8242 16.1297 16.8804C16.0649 16.9367 15.9842 16.9716 15.8988 16.9803C15.8134 16.989 15.7274 16.9711 15.6525 16.929Z" stroke="black" stroke-width="1.25" stroke-linecap="round" stroke-linejoin="round"/>
</svg>
