<svg width="40" height="40" viewBox="0 0 40 40" fill="none" xmlns="http://www.w3.org/2000/svg">
<path d="M11.6665 15L19.6165 7.89167C21.7765 5.96333 22.8548 5 24.1665 5C25.4782 5 26.5582 5.96333 28.7165 7.89167L36.6665 15M14.1665 13.3333V33.3333M34.1665 33.3333V13.3333" stroke="#1281CE" stroke-width="1.5" stroke-linecap="round" stroke-linejoin="round"/>
<path d="M5.83325 23.3337C7.21396 23.3337 8.33325 21.8413 8.33325 20.0003C8.33325 18.1594 7.21396 16.667 5.83325 16.667C4.45254 16.667 3.33325 18.1594 3.33325 20.0003C3.33325 21.8413 4.45254 23.3337 5.83325 23.3337Z" stroke="#1281CE" stroke-width="1.5" stroke-linecap="round" stroke-linejoin="round"/>
<path d="M5.83325 23.333V33.333M3.33325 33.333H36.6666M19.9999 33.333V26.6663C19.9999 25.0947 19.9999 24.3097 20.4883 23.8213C20.9766 23.333 21.7616 23.333 23.3333 23.333H24.9999C26.5716 23.333 27.3566 23.333 27.8449 23.8213C28.3333 24.3097 28.3333 25.0947 28.3333 26.6663V33.333M22.4999 18.333H25.8333M22.4999 13.333H25.8333" stroke="#1281CE" stroke-width="1.5" stroke-linecap="round" stroke-linejoin="round"/>
</svg>
