<svg width="40" height="40" viewBox="0 0 40 40" fill="none" xmlns="http://www.w3.org/2000/svg">
<path d="M3.33337 36.613C4.91671 36.613 6.48171 36.758 7.79671 35.733C9.08671 34.7263 11.1384 34.7597 12.3784 35.8063C13.7284 36.948 16.2784 36.9147 17.6617 35.8397C19.0017 34.793 21.035 34.673 22.3784 35.8063C23.8517 37.0513 26.3334 36.873 27.7967 35.733C29.0867 34.7263 31.1384 34.7597 32.3784 35.8063C33.5717 36.8147 35.2 36.613 36.6667 36.613M13.3334 31.6663C15.33 27.6813 19.06 24.9997 23.3334 24.9997C27.6067 24.9997 31.3367 27.6813 33.3334 31.6663M18.3334 25.1697C13.3334 24.2413 8.99504 27.228 6.66671 31.6663M20 24.9997C20 19.9997 21.3334 11.933 26.6667 8.33301M26.6667 8.33301C28.8367 5.16134 27.2917 3.33301 25.8334 3.33301M26.6667 8.33301C27.9767 8.72301 32.0134 10.533 31.6384 14.9997M26.6667 8.33301C25.6917 7.15967 22.1884 5.66634 20 7.99967M26.6667 8.33301C27.6334 9.51634 28.3334 13.333 26.6667 14.9997" stroke="#1281CE" stroke-width="1.5" stroke-linecap="round" stroke-linejoin="round"/>
</svg>
