<svg width="7" height="16" viewBox="0 0 7 16" fill="none" xmlns="http://www.w3.org/2000/svg">
<g clip-path="url(#clip0_233_4159)">
<path d="M6.49999 8C6.50079 8.06558 6.48786 8.13059 6.46202 8.19087C6.43619 8.25115 6.39803 8.30535 6.34999 8.35L1.84999 12.85C1.64999 13.05 1.33999 13.05 1.13999 12.85C0.93999 12.65 0.93999 12.34 1.13999 12.14L5.28999 7.99L1.14999 3.85C0.94999 3.65 0.94999 3.34 1.14999 3.14C1.34999 2.94 1.65999 2.94 1.85999 3.14L6.35999 7.64C6.45999 7.74 6.50999 7.87 6.50999 7.99L6.49999 8Z" fill="#0C396D"/>
</g>
<defs>
<clipPath id="clip0_233_4159">
<rect width="16" height="7" fill="white" transform="translate(0 16) rotate(-90)"/>
</clipPath>
</defs>
</svg>
