<svg width="32" height="32" viewBox="0 0 32 32" fill="none" xmlns="http://www.w3.org/2000/svg">
<path d="M2.66675 13.334L9.33341 5.33398M9.33341 5.33398L16.5521 12.5527C16.9387 12.9393 17.1307 13.1313 17.3747 13.2327C17.6201 13.334 17.8934 13.334 18.4374 13.334H29.3334L24.2667 7.25398C23.4801 6.30998 23.0867 5.83798 22.5494 5.58598C22.0107 5.33398 21.3974 5.33398 20.1694 5.33398H9.33341Z" stroke="#1281CE" stroke-width="1.5" stroke-linecap="round" stroke-linejoin="round"/>
<path d="M14.6667 10.6673V26.6673M14.6667 26.6673H4V11.81M14.6667 26.6673H28V12.0007M5.33333 10.0007V5.33398M9.344 16.0007H9.332M9.33333 26.6673V21.334M20 18.6673H22.6667" stroke="#1281CE" stroke-width="1.5" stroke-linecap="round" stroke-linejoin="round"/>
</svg>
