<svg width="20" height="20" viewBox="0 0 20 20" fill="none" xmlns="http://www.w3.org/2000/svg">
<path fill-rule="evenodd" clip-rule="evenodd" d="M6.824 3.74642V16.2536H1.1412V3.74642H6.824ZM7.9652 3.74642H13.648V16.2536H7.9652V3.74642ZM17.8172 4.72682L15.6344 6.67522L16.3944 7.52682L17.8168 6.25682L19.2396 7.52682L19.9996 6.67522L17.8172 4.72682ZM19.24 13.1648L17.8172 14.4348L16.3948 13.1648L15.6348 14.0164L17.8176 15.9648L20 14.0164L19.24 13.1648ZM14.7892 2.60522H0V17.3944H14.7892V2.60522Z" fill="#212121"/>
<path fill-rule="evenodd" clip-rule="evenodd" d="M6.824 3.74642V16.2536H1.1412V3.74642H6.824ZM7.9652 3.74642H13.648V16.2536H7.9652V3.74642ZM17.8172 4.72682L15.6344 6.67522L16.3944 7.52682L17.8168 6.25682L19.2396 7.52682L19.9996 6.67522L17.8172 4.72682ZM19.24 13.1648L17.8172 14.4348L16.3948 13.1648L15.6348 14.0164L17.8176 15.9648L20 14.0164L19.24 13.1648ZM14.7892 2.60522H0V17.3944H14.7892V2.60522Z" fill="black" fill-opacity="0.2"/>
</svg>
