<svg width="20" height="20" viewBox="0 0 20 20" fill="none" xmlns="http://www.w3.org/2000/svg">
<path d="M3.07125 15.6525L9.63792 3.97917C9.67426 3.91505 9.72696 3.86171 9.79064 3.8246C9.85432 3.7875 9.92671 3.76794 10.0004 3.76794C10.0741 3.76794 10.1465 3.7875 10.2102 3.8246C10.2739 3.86171 10.3266 3.91505 10.3629 3.97917L16.9296 15.6525C16.9714 15.7273 16.989 15.8132 16.9802 15.8985C16.9714 15.9837 16.9365 16.0642 16.8803 16.1289C16.824 16.1936 16.7492 16.2394 16.6661 16.26C16.5829 16.2806 16.4953 16.2751 16.4154 16.2442L10.1513 13.8092C10.0542 13.7715 9.94661 13.7715 9.84958 13.8092L3.58542 16.245C3.50539 16.2761 3.4177 16.2817 3.33435 16.2611C3.25101 16.2405 3.17607 16.1946 3.11979 16.1297C3.06352 16.0649 3.02865 15.9842 3.01996 15.8988C3.01127 15.8134 3.02919 15.7274 3.07125 15.6525Z" stroke="black" stroke-width="1.25" stroke-linecap="round" stroke-linejoin="round"/>
<path d="M3.07101 15.6525L9.63767 3.97917C9.67401 3.91505 9.72671 3.86171 9.7904 3.8246C9.85408 3.7875 9.92647 3.76794 10.0002 3.76794C10.0739 3.76794 10.1463 3.7875 10.2099 3.8246C10.2736 3.86171 10.3263 3.91505 10.3627 3.97917L16.9293 15.6525C16.9711 15.7273 16.9888 15.8132 16.98 15.8985C16.9711 15.9837 16.9362 16.0642 16.88 16.1289C16.8238 16.1936 16.749 16.2394 16.6658 16.26C16.5826 16.2806 16.4951 16.2751 16.4152 16.2442L10.151 13.8092C10.054 13.7715 9.94637 13.7715 9.84934 13.8092L3.58517 16.245C3.50514 16.2761 3.41745 16.2817 3.33411 16.2611C3.25076 16.2405 3.17583 16.1946 3.11955 16.1297C3.06327 16.0649 3.02841 15.9842 3.01972 15.8988C3.01103 15.8134 3.02894 15.7274 3.07101 15.6525Z" stroke="black" stroke-width="1.25" stroke-linecap="round" stroke-linejoin="round"/>
</svg>
