<svg width="32" height="32" viewBox="0 0 32 32" fill="none" xmlns="http://www.w3.org/2000/svg">
<path d="M18.6666 29.3337V10.667M18.6666 29.3337H10.6666C6.89596 29.3337 5.00929 29.3337 3.83863 28.1617C2.66663 26.991 2.66663 25.1043 2.66663 21.3337V10.667C2.66663 6.89633 2.66663 5.00966 3.83863 3.83899C5.00929 2.66699 6.89596 2.66699 10.6666 2.66699C14.4373 2.66699 16.324 2.66699 17.4946 3.83899C18.6666 5.00966 18.6666 6.89633 18.6666 10.667M18.6666 29.3337H24C26.5146 29.3337 27.7706 29.3337 28.552 28.5523C29.3333 27.771 29.3333 26.515 29.3333 24.0003V16.0003C29.3333 13.4857 29.3333 12.2297 28.552 11.4483C27.7706 10.667 26.5146 10.667 24 10.667H18.6666M8.66663 14.667H7.33329M14 14.667H12.6666M8.66663 9.33366H7.33329M8.66663 20.0003H7.33329M14 9.33366H12.6666M14 20.0003H12.6666M24.6666 20.0003H23.3333M24.6666 14.667H23.3333" stroke="#1281CE" stroke-width="1.5" stroke-linecap="round" stroke-linejoin="round"/>
</svg>
