<svg width="20" height="20" viewBox="0 0 20 20" fill="none" xmlns="http://www.w3.org/2000/svg">
<path d="M6.66675 2.49995V14.5833M12.5001 5.41662V17.0833M4.37758 3.49662L3.35508 4.08995C2.53091 4.56745 2.11925 4.80662 1.89341 5.20412C1.66675 5.60162 1.66675 6.08495 1.66675 7.05328V13.8566C1.66675 15.1283 1.66675 15.7649 1.95175 16.1183C2.14175 16.3533 2.40758 16.5116 2.70175 16.5641C3.14341 16.6433 3.68508 16.3291 4.76675 15.7016C5.50175 15.2758 6.20841 14.8325 7.08758 14.9533C7.48758 15.0075 7.86841 15.1974 8.63175 15.5766L11.8092 17.1566C12.4967 17.4983 12.5034 17.5 13.2676 17.5H15.0001C16.5717 17.5 17.3567 17.4999 17.8451 17.0008C18.3334 16.5024 18.3334 15.6991 18.3334 14.0924V8.47578C18.3334 6.86995 18.3334 6.06745 17.8451 5.56745C17.3567 5.06912 16.5717 5.06912 15.0001 5.06912H13.2676C12.5034 5.06912 12.4967 5.06745 11.8092 4.72578L9.03341 3.34578C7.87425 2.76912 7.29425 2.48078 6.67675 2.49995C6.05925 2.51912 5.50008 2.84578 4.37758 3.49662Z" stroke="#459DDA" stroke-width="1.25" stroke-linecap="round" stroke-linejoin="round"/>
<path d="M6.66675 2.49995V14.5833M12.5001 5.41662V17.0833M4.37758 3.49662L3.35508 4.08995C2.53091 4.56745 2.11925 4.80662 1.89341 5.20412C1.66675 5.60162 1.66675 6.08495 1.66675 7.05328V13.8566C1.66675 15.1283 1.66675 15.7649 1.95175 16.1183C2.14175 16.3533 2.40758 16.5116 2.70175 16.5641C3.14341 16.6433 3.68508 16.3291 4.76675 15.7016C5.50175 15.2758 6.20841 14.8325 7.08758 14.9533C7.48758 15.0075 7.86841 15.1974 8.63175 15.5766L11.8092 17.1566C12.4967 17.4983 12.5034 17.5 13.2676 17.5H15.0001C16.5717 17.5 17.3567 17.4999 17.8451 17.0008C18.3334 16.5024 18.3334 15.6991 18.3334 14.0924V8.47578C18.3334 6.86995 18.3334 6.06745 17.8451 5.56745C17.3567 5.06912 16.5717 5.06912 15.0001 5.06912H13.2676C12.5034 5.06912 12.4967 5.06745 11.8092 4.72578L9.03341 3.34578C7.87425 2.76912 7.29425 2.48078 6.67675 2.49995C6.05925 2.51912 5.50008 2.84578 4.37758 3.49662Z" stroke="#459DDA" stroke-width="1.25" stroke-linecap="round" stroke-linejoin="round"/>
</svg>
