<svg width="40" height="40" viewBox="0 0 40 40" fill="none" xmlns="http://www.w3.org/2000/svg">
<path d="M12.4996 13.3333L12.7796 9.97666C12.9305 8.16553 13.7565 6.47725 15.0939 5.24665C16.4312 4.01604 18.1823 3.33301 19.9996 3.33301C21.817 3.33301 23.5681 4.01604 24.9054 5.24665C26.2428 6.47725 27.0688 8.16553 27.2196 9.97666L27.4996 13.3333M5.10298 25.3217L5.71131 21.87C6.43131 17.79 6.78965 15.75 8.21465 14.5417C9.63965 13.3333 11.6863 13.3333 15.778 13.3333H24.2213C28.313 13.3333 30.3596 13.3333 31.7846 14.5417C33.2096 15.75 33.568 17.79 34.288 21.87L34.8963 25.3217C35.893 30.9683 36.3896 33.7917 34.858 35.6467C33.3246 37.5 30.4913 37.5 24.8296 37.5H15.1696C9.50631 37.5 6.67465 37.5 5.14131 35.645C3.60798 33.79 4.10798 30.9683 5.10298 25.3217Z" stroke="#1281CE" stroke-width="1.5" stroke-linecap="round" stroke-linejoin="round"/>
<path d="M24.9998 18.333C24.7831 20.688 22.6098 22.4997 19.9998 22.4997C17.3898 22.4997 15.2164 20.688 14.9998 18.333" stroke="#1281CE" stroke-width="1.5" stroke-linecap="round" stroke-linejoin="round"/>
</svg>
